<svg width="20" height="19" viewBox="0 0 20 19" fill="none" xmlns="http://www.w3.org/2000/svg">
<g clip-path="url(#clip0)">
<path d="M19.995 18.3498V18.3491H20V11.8393C20 8.65461 19.2275 6.20142 15.0325 6.20142C13.0158 6.20142 11.6625 7.18358 11.11 8.11472H11.0517V6.49873H7.07416V18.3491H11.2158V12.4812C11.2158 10.9362 11.5458 9.44227 13.7017 9.44227C15.8258 9.44227 15.8575 11.2054 15.8575 12.5803V18.3498H19.995Z" fill="white"/>
<path d="M0.330017 6.49951H4.47668V18.3499H0.330017V6.49951Z" fill="white"/>
<path d="M2.40167 0.599854C1.07583 0.599854 0 1.55466 0 2.73133C0 3.90801 1.07583 4.88278 2.40167 4.88278C3.7275 4.88278 4.80333 3.90801 4.80333 2.73133C4.8025 1.55466 3.72667 0.599854 2.40167 0.599854V0.599854Z" fill="white"/>
</g>
<defs>
<clipPath id="clip0">
<rect width="20" height="17.75" fill="white" transform="translate(0 0.599854)"/>
</clipPath>
</defs>
</svg>
