<svg width="20" height="19" viewBox="0 0 20 19" fill="none" xmlns="http://www.w3.org/2000/svg">
<g clip-path="url(#clip0)">
<path d="M19.9804 5.8184C19.9336 4.87528 19.7617 4.22689 19.5156 3.66505C19.2616 3.06867 18.8709 2.53473 18.359 2.09087C17.8589 1.6401 17.2533 1.28983 16.5891 1.06796C15.9524 0.849485 15.2256 0.69697 14.163 0.655387C13.0924 0.610283 12.7525 0.599854 10.0371 0.599854C7.32173 0.599854 6.98185 0.610283 5.91521 0.651866C4.85253 0.693448 4.12195 0.846098 3.48904 1.06444C2.81692 1.28983 2.2153 1.63657 1.71517 2.09087C1.20726 2.53473 0.812743 3.07219 0.562603 3.66166C0.31643 4.22689 0.144583 4.87175 0.0977294 5.81488C0.0469078 6.76505 0.0351562 7.06669 0.0351562 9.47659C0.0351562 11.8865 0.0469078 12.1881 0.0937614 13.1348C0.140615 14.0779 0.312615 14.7263 0.558787 15.2881C0.812743 15.8845 1.20726 16.4184 1.71517 16.8623C2.2153 17.3131 2.82088 17.6633 3.48508 17.8852C4.12195 18.1037 4.84856 18.2562 5.91139 18.2978C6.97788 18.3395 7.31791 18.3498 10.0333 18.3498C12.7487 18.3498 13.0885 18.3395 14.1552 18.2978C15.2179 18.2562 15.9484 18.1037 16.5813 17.8852C17.9254 17.424 18.9881 16.4809 19.5078 15.2881C19.7538 14.7229 19.9258 14.0779 19.9727 13.1348C20.0195 12.1881 20.0313 11.8865 20.0313 9.47659C20.0313 7.06669 20.0273 6.76505 19.9804 5.8184ZM18.1794 13.0654C18.1364 13.9323 17.9723 14.4004 17.8356 14.7125C17.4995 15.4857 16.808 16.0995 15.9367 16.3977C15.5851 16.5191 15.0538 16.6647 14.0809 16.7027C13.026 16.7445 12.7096 16.7548 10.0411 16.7548C7.37255 16.7548 7.05221 16.7445 6.00113 16.7027C5.02438 16.6647 4.49693 16.5191 4.1453 16.3977C3.71171 16.2555 3.31704 16.0301 2.9967 15.7354C2.6646 15.4476 2.41065 15.1008 2.2504 14.716C2.11365 14.4039 1.94959 13.9323 1.90671 13.0689C1.8597 12.1327 1.8481 11.8518 1.8481 9.4835C1.8481 7.11518 1.8597 6.83088 1.90671 5.89818C1.94959 5.03131 2.11365 4.5632 2.2504 4.25113C2.41065 3.86619 2.6646 3.51605 3.00067 3.23161C3.32483 2.93688 3.71553 2.71149 4.14927 2.56941C4.5009 2.44804 5.03231 2.30244 6.0051 2.26424C7.05999 2.22266 7.37652 2.21223 10.0449 2.21223C12.7174 2.21223 13.0337 2.22266 14.0848 2.26424C15.0616 2.30244 15.589 2.44804 15.9407 2.56941C16.3742 2.71149 16.7689 2.93688 17.0893 3.23161C17.4213 3.51944 17.6753 3.86619 17.8356 4.25113C17.9723 4.5632 18.1364 5.0347 18.1794 5.89818C18.2263 6.8344 18.238 7.11518 18.238 9.4835C18.238 11.8518 18.2263 12.1292 18.1794 13.0654Z" fill="white"/>
<path d="M10.0371 4.91675C7.20068 4.91675 4.89935 6.95904 4.89935 9.47648C4.89935 11.9939 7.20068 14.0362 10.0371 14.0362C12.8736 14.0362 15.1748 11.9939 15.1748 9.47648C15.1748 6.95904 12.8736 4.91675 10.0371 4.91675ZM10.0371 12.4343C8.19696 12.4343 6.70436 11.1097 6.70436 9.47648C6.70436 7.84324 8.19696 6.51869 10.0371 6.51869C11.8773 6.51869 13.3698 7.84324 13.3698 9.47648C13.3698 11.1097 11.8773 12.4343 10.0371 12.4343V12.4343Z" fill="white"/>
<path d="M16.5775 4.73661C16.5775 5.32446 16.0405 5.8011 15.378 5.8011C14.7156 5.8011 14.1785 5.32446 14.1785 4.73661C14.1785 4.14863 14.7156 3.67212 15.378 3.67212C16.0405 3.67212 16.5775 4.14863 16.5775 4.73661V4.73661Z" fill="white"/>
</g>
<defs>
<clipPath id="clip0">
<rect width="20" height="17.75" fill="white" transform="translate(0 0.599854)"/>
</clipPath>
</defs>
</svg>
