<svg width="80" height="43" viewBox="0 0 80 43" fill="none" xmlns="http://www.w3.org/2000/svg">
<path d="M12.4021 12.8306H12.3994C10.1371 12.8306 8.3031 14.6177 8.3031 16.8223V16.8249C8.3031 19.0295 10.1371 20.8167 12.3994 20.8167H12.4021C14.6644 20.8167 16.4983 19.0295 16.4983 16.8249V16.8223C16.4983 14.6177 14.6644 12.8306 12.4021 12.8306Z" fill="#2196F3"/>
<path d="M42.6369 11.5545C42.6305 8.49242 41.3796 5.55752 39.158 3.39207C36.9364 1.22661 33.925 0.00695286 30.7828 0V0C27.6397 0.00556265 24.627 1.22461 22.4042 3.39022C20.1814 5.55582 18.9298 8.49151 18.9234 11.5545V28.4402C18.9234 28.4402 42.6342 25.8667 42.6369 11.5571V11.5545Z" fill="#2196F3"/>
<path d="M6.10352e-05 33.9823C0.00576007 36.1129 0.876617 38.1547 2.42234 39.6615C3.96806 41.1683 6.06296 42.0177 8.24929 42.0239C10.4351 42.0177 12.5296 41.1687 14.0753 39.6625C15.6209 38.1562 16.4921 36.1151 16.4985 33.9849V22.2356C16.4985 22.2356 6.10352e-05 24.0276 6.10352e-05 33.9823ZM8.24929 36.0874C7.82204 36.0874 7.40439 35.964 7.04915 35.7326C6.69391 35.5013 6.41703 35.1726 6.25353 34.7879C6.09003 34.4032 6.04725 33.98 6.13061 33.5716C6.21396 33.1632 6.4197 32.7881 6.7218 32.4937C7.02391 32.1993 7.40882 31.9988 7.82786 31.9176C8.24689 31.8364 8.68124 31.8781 9.07596 32.0374C9.47068 32.1967 9.80806 32.4665 10.0454 32.8127C10.2828 33.1589 10.4095 33.5659 10.4095 33.9823C10.4105 34.2594 10.3555 34.534 10.2474 34.7903C10.1393 35.0466 9.98034 35.2796 9.77964 35.476C9.57895 35.6723 9.34045 35.828 9.07783 35.9343C8.81522 36.0406 8.53365 36.0953 8.24929 36.0953V36.0874Z" fill="#2196F3"/>
<path d="M25.0892 34.7812H23.4017V36.5244H22.5228V32.2588H25.3002V32.9707H23.4017V34.0723H25.0892V34.7812ZM29.3138 34.4883C29.3138 34.9082 29.2396 35.2764 29.0912 35.5928C28.9427 35.9092 28.7299 36.1533 28.4525 36.3252C28.1771 36.4971 27.8607 36.583 27.5033 36.583C27.1498 36.583 26.8344 36.498 26.557 36.3281C26.2797 36.1582 26.0648 35.916 25.9125 35.6016C25.7601 35.2852 25.683 34.9219 25.681 34.5117V34.3008C25.681 33.8809 25.7562 33.5117 25.9066 33.1934C26.059 32.873 26.2728 32.6279 26.5482 32.458C26.8256 32.2861 27.142 32.2002 27.4974 32.2002C27.8529 32.2002 28.1683 32.2861 28.4437 32.458C28.7211 32.6279 28.9349 32.873 29.0853 33.1934C29.2377 33.5117 29.3138 33.8799 29.3138 34.2979V34.4883ZM28.4232 34.2949C28.4232 33.8477 28.3431 33.5078 28.183 33.2754C28.0228 33.043 27.7943 32.9268 27.4974 32.9268C27.2025 32.9268 26.975 33.042 26.8148 33.2725C26.6547 33.501 26.5736 33.8369 26.5717 34.2803V34.4883C26.5717 34.9238 26.6517 35.2617 26.8119 35.502C26.972 35.7422 27.2025 35.8623 27.5033 35.8623C27.7982 35.8623 28.0248 35.7471 28.183 35.5166C28.3412 35.2842 28.4213 34.9463 28.4232 34.5029V34.2949ZM32.1644 35.4053C32.1644 35.2393 32.1058 35.1123 31.9886 35.0244C31.8715 34.9346 31.6605 34.8408 31.3558 34.7432C31.0511 34.6436 30.8099 34.5459 30.6322 34.4502C30.1478 34.1885 29.9056 33.8359 29.9056 33.3926C29.9056 33.1621 29.9701 32.957 30.099 32.7773C30.2299 32.5957 30.4164 32.4541 30.6586 32.3525C30.9027 32.251 31.1761 32.2002 31.4789 32.2002C31.7836 32.2002 32.0551 32.2559 32.2933 32.3672C32.5316 32.4766 32.7162 32.6318 32.847 32.833C32.9799 33.0342 33.0463 33.2627 33.0463 33.5186H32.1674C32.1674 33.3232 32.1058 33.1719 31.9828 33.0645C31.8597 32.9551 31.6869 32.9004 31.4642 32.9004C31.2494 32.9004 31.0824 32.9463 30.9633 33.0381C30.8441 33.1279 30.7845 33.2471 30.7845 33.3955C30.7845 33.5342 30.8539 33.6504 30.9926 33.7441C31.1332 33.8379 31.3392 33.9258 31.6107 34.0078C32.1107 34.1582 32.475 34.3447 32.7035 34.5674C32.932 34.79 33.0463 35.0674 33.0463 35.3994C33.0463 35.7686 32.9066 36.0586 32.6273 36.2695C32.348 36.4785 31.972 36.583 31.4994 36.583C31.1713 36.583 30.8724 36.5234 30.6029 36.4043C30.3334 36.2832 30.1273 36.1182 29.9847 35.9092C29.8441 35.7002 29.7738 35.458 29.7738 35.1826H30.6556C30.6556 35.6533 30.9369 35.8887 31.4994 35.8887C31.7084 35.8887 31.8715 35.8467 31.9886 35.7627C32.1058 35.6768 32.1644 35.5576 32.1644 35.4053ZM36.8549 32.9707H35.5482V36.5244H34.6693V32.9707H33.3802V32.2588H36.8549V32.9707ZM39.9252 34.6758H38.2377V35.8184H40.2181V36.5244H37.3588V32.2588H40.2123V32.9707H38.2377V33.9873H39.9252V34.6758ZM42.3129 34.9629H41.6127V36.5244H40.7338V32.2588H42.3187C42.8226 32.2588 43.2113 32.3711 43.4847 32.5957C43.7582 32.8203 43.8949 33.1377 43.8949 33.5479C43.8949 33.8389 43.8314 34.082 43.7045 34.2773C43.5795 34.4707 43.389 34.625 43.1332 34.7402L44.056 36.4834V36.5244H43.1127L42.3129 34.9629ZM41.6127 34.251H42.3217C42.5424 34.251 42.7133 34.1953 42.8344 34.084C42.9554 33.9707 43.016 33.8154 43.016 33.6182C43.016 33.417 42.9584 33.2588 42.8431 33.1436C42.7299 33.0283 42.5551 32.9707 42.3187 32.9707H41.6127V34.251ZM46.9388 35.0215V36.5244H46.0599V32.2588H47.724C48.0443 32.2588 48.3256 32.3174 48.5677 32.4346C48.8119 32.5518 48.9994 32.7188 49.1302 32.9355C49.2611 33.1504 49.3265 33.3955 49.3265 33.6709C49.3265 34.0889 49.183 34.4189 48.8959 34.6611C48.6107 34.9014 48.2152 35.0215 47.7094 35.0215H46.9388ZM46.9388 34.3096H47.724C47.9564 34.3096 48.1332 34.2549 48.2543 34.1455C48.3773 34.0361 48.4388 33.8799 48.4388 33.6768C48.4388 33.4678 48.3773 33.2988 48.2543 33.1699C48.1312 33.041 47.9613 32.9746 47.7445 32.9707H46.9388V34.3096ZM52.4994 34.6758H50.8119V35.8184H52.7924V36.5244H49.933V32.2588H52.7865V32.9707H50.8119V33.9873H52.4994V34.6758ZM56.5775 32.9707H55.2709V36.5244H54.392V32.9707H53.1029V32.2588H56.5775V32.9707ZM59.6478 34.6758H57.9603V35.8184H59.9408V36.5244H57.0814V32.2588H59.9349V32.9707H57.9603V33.9873H59.6478V34.6758ZM62.0355 34.9629H61.3353V36.5244H60.4564V32.2588H62.0414C62.5453 32.2588 62.934 32.3711 63.2074 32.5957C63.4808 32.8203 63.6176 33.1377 63.6176 33.5479C63.6176 33.8389 63.5541 34.082 63.4271 34.2773C63.3021 34.4707 63.1117 34.625 62.8558 34.7402L63.7787 36.4834V36.5244H62.8353L62.0355 34.9629ZM61.3353 34.251H62.0443C62.265 34.251 62.4359 34.1953 62.557 34.084C62.6781 33.9707 62.7386 33.8154 62.7386 33.6182C62.7386 33.417 62.681 33.2588 62.5658 33.1436C62.4525 33.0283 62.2777 32.9707 62.0414 32.9707H61.3353V34.251ZM66.5004 35.4053C66.5004 35.2393 66.4418 35.1123 66.3246 35.0244C66.2074 34.9346 65.9965 34.8408 65.6918 34.7432C65.3871 34.6436 65.1459 34.5459 64.9681 34.4502C64.4838 34.1885 64.2416 33.8359 64.2416 33.3926C64.2416 33.1621 64.306 32.957 64.4349 32.7773C64.5658 32.5957 64.7523 32.4541 64.9945 32.3525C65.2386 32.251 65.5121 32.2002 65.8148 32.2002C66.1195 32.2002 66.391 32.2559 66.6293 32.3672C66.8676 32.4766 67.0521 32.6318 67.183 32.833C67.3158 33.0342 67.3822 33.2627 67.3822 33.5186H66.5033C66.5033 33.3232 66.4418 33.1719 66.3187 33.0645C66.1957 32.9551 66.0228 32.9004 65.8002 32.9004C65.5853 32.9004 65.4183 32.9463 65.2992 33.0381C65.1801 33.1279 65.1205 33.2471 65.1205 33.3955C65.1205 33.5342 65.1898 33.6504 65.3285 33.7441C65.4691 33.8379 65.6752 33.9258 65.9467 34.0078C66.4467 34.1582 66.8109 34.3447 67.0394 34.5674C67.2679 34.79 67.3822 35.0674 67.3822 35.3994C67.3822 35.7686 67.2426 36.0586 66.9633 36.2695C66.684 36.4785 66.308 36.583 65.8353 36.583C65.5072 36.583 65.2084 36.5234 64.9388 36.4043C64.6693 36.2832 64.4633 36.1182 64.3207 35.9092C64.1801 35.7002 64.1097 35.458 64.1097 35.1826H64.9916C64.9916 35.6533 65.2728 35.8887 65.8353 35.8887C66.0443 35.8887 66.2074 35.8467 66.3246 35.7627C66.4418 35.6768 66.5004 35.5576 66.5004 35.4053Z" fill="#2196F3"/>
</svg>
