<svg width="20" height="19" viewBox="0 0 20 19" fill="none" xmlns="http://www.w3.org/2000/svg">
<g clip-path="url(#clip0)">
<path d="M20 3.97124C19.2562 4.26079 18.4637 4.45271 17.6375 4.5459C18.4875 4.09549 19.1363 3.38771 19.4413 2.5346C18.6488 2.95395 17.7737 3.25015 16.8412 3.41545C16.0887 2.70434 15.0162 2.26392 13.8462 2.26392C11.5762 2.26392 9.74875 3.89913 9.74875 5.90378C9.74875 6.19221 9.77625 6.46956 9.84375 6.73359C6.435 6.58604 3.41875 5.13609 1.3925 2.92732C1.03875 3.47203 0.83125 4.09549 0.83125 4.76667C0.83125 6.02692 1.5625 7.14406 2.6525 7.79082C1.99375 7.77973 1.3475 7.60999 0.8 7.34263C0.8 7.35373 0.8 7.36815 0.8 7.38257C0.8 9.15092 2.22125 10.6197 4.085 10.9581C3.75125 11.0391 3.3875 11.0779 3.01 11.0779C2.7475 11.0779 2.4825 11.0646 2.23375 11.0158C2.765 12.4569 4.2725 13.5163 6.065 13.5507C4.67 14.5192 2.89875 15.1027 0.98125 15.1027C0.645 15.1027 0.3225 15.0894 0 15.0528C1.81625 16.0923 3.96875 16.6858 6.29 16.6858C13.835 16.6858 17.96 11.1389 17.96 6.33088C17.96 6.17003 17.9537 6.01471 17.945 5.86051C18.7587 5.34798 19.4425 4.70787 20 3.97124Z" fill="white"/>
</g>
<defs>
<clipPath id="clip0">
<rect width="20" height="17.75" fill="white" transform="translate(0 0.599854)"/>
</clipPath>
</defs>
</svg>
